<?xml version="1.0" encoding="UTF-8"?>
<svg width="100" height="100" viewBox="0 0 100 100" fill="none" xmlns="http://www.w3.org/2000/svg">
  <ellipse cx="50" cy="95" rx="30" ry="5" fill="#8B4513"/>
  <path d="M50 95V10" stroke="#8B4513" stroke-width="8"/>
  <path d="M20 80L45 50" stroke="#8B4513" stroke-width="6"/>
  <path d="M80 70L55 40" stroke="#8B4513" stroke-width="6"/>
  <path d="M30 50L45 30" stroke="#8B4513" stroke-width="4"/>
  <path d="M70 40L55 20" stroke="#8B4513" stroke-width="4"/>
  <path d="M50 10C10 10 0 30 30 0C45 5 50 5 50 10Z" fill="#4CAF50"/>
  <path d="M50 30C10 30 0 50 30 20C45 25 50 25 50 30Z" fill="#4CAF50"/>
  <path d="M50 50C10 50 0 70 30 40C45 45 50 45 50 50Z" fill="#4CAF50"/>
  <path d="M50 70C10 70 0 90 30 60C45 65 50 65 50 70Z" fill="#4CAF50"/>
  <path d="M50 10C90 10 100 30 70 0C55 5 50 5 50 10Z" fill="#4CAF50"/>
  <path d="M50 30C90 30 100 50 70 20C55 25 50 25 50 30Z" fill="#4CAF50"/>
  <path d="M50 50C90 50 100 70 70 40C55 45 50 45 50 50Z" fill="#4CAF50"/>
  <path d="M50 70C90 70 100 90 70 60C55 65 50 65 50 70Z" fill="#4CAF50"/>
</svg>
