<?xml version="1.0" encoding="UTF-8"?>
<svg width="100" height="100" viewBox="0 0 100 100" fill="none" xmlns="http://www.w3.org/2000/svg">
  <ellipse cx="50" cy="95" rx="25" ry="5" fill="#8B4513"/>
  <path d="M50 95V20" stroke="#8B4513" stroke-width="6"/>
  <path d="M30 80L45 60" stroke="#8B4513" stroke-width="4"/>
  <path d="M70 70L55 50" stroke="#8B4513" stroke-width="4"/>
  <path d="M50 20C20 20 10 30 30 5C45 15 50 15 50 20Z" fill="#4CAF50"/>
  <path d="M50 40C20 40 10 50 30 25C45 35 50 35 50 40Z" fill="#4CAF50"/>
  <path d="M50 60C20 60 10 70 30 45C45 55 50 55 50 60Z" fill="#4CAF50"/>
  <path d="M50 20C80 20 90 30 70 5C55 15 50 15 50 20Z" fill="#4CAF50"/>
  <path d="M50 40C80 40 90 50 70 25C55 35 50 35 50 40Z" fill="#4CAF50"/>
  <path d="M50 60C80 60 90 70 70 45C55 55 50 55 50 60Z" fill="#4CAF50"/>
</svg>
